<svg width="43" height="43" viewBox="0 0 43 43" fill="none" xmlns="http://www.w3.org/2000/svg">
<path d="M21.5 0.5C33.098 0.5 42.5 9.90202 42.5 21.5C42.5 33.0979 33.098 42.5 21.5 42.5C9.90203 42.5 0.5 33.0979 0.5 21.5C0.5 9.90202 9.90203 0.5 21.5 0.5Z" fill="black" stroke="white"/>
<path d="M27.1553 11.9104L27.5498 12.804L28.0439 11.9622L30.3545 8.02661L29.8555 13.0725L29.7676 13.9592L30.5703 13.5725L34.4961 11.6799L31.8174 15.3108L31.3379 15.9602L32.1338 16.0999L36.8916 16.9329L32.582 17.9749L31.543 18.2258L32.4023 18.8625L36.9131 22.2063L32.1953 20.4514L30.9463 19.9856L31.582 21.1575L35.2441 27.9153L30.7021 22.7375L29.6133 21.4963L29.8311 23.1331L31.1729 33.2219L28.002 23.5891L27.585 22.3245L27.0664 23.551L21.2285 37.3518L24.1738 22.969L24.3906 21.9124L23.4443 22.4299L8.23047 30.7532L8.20605 30.7209L20.9521 20.1155L21.8574 19.3625L20.6875 19.2346L5.51172 17.5706L5.51758 17.5432L20.251 16.304L21.8516 16.1692L20.457 15.3723L10.4756 9.6604L21.917 13.4836L23.5088 14.0149L22.4678 12.6995L17.4141 6.30688L24.3047 11.844L25.2461 12.5999L25.1143 11.3997L24.5186 5.9397L27.1553 11.9104Z" fill="white" stroke="white"/>
</svg>
