<svg width="80" height="80" viewBox="0 0 80 80" fill="none" xmlns="http://www.w3.org/2000/svg">
<path d="M40 80C62.0915 80 80 62.0913 80 40C80 17.9086 62.0915 0 40 0C17.9086 0 0 17.9086 0 40C0 62.0913 17.9086 80 40 80Z" fill="black"/>
<path d="M70.3995 32.0358L70.1405 30.8232L59.9435 29.0373L65.8797 20.9955L65.1964 20.2073L56.4709 24.4128L57.5733 13.2678L56.6804 12.7441L51.3724 21.7838L45.4306 8.3291H44.3834L45.7999 21.3097L30.8184 9.27165L29.5563 9.64094L41.0707 24.2034L18.2568 16.5804L17.204 17.7379L37.5981 29.4066L9.4763 31.7714L9.16211 33.5075L38.3863 36.71L13.9961 57.0048L15.0488 58.4214L44.0636 42.5471L38.3367 70.5146H40.073L51.2125 44.1786L57.9978 64.7822L59.2049 63.8341L56.4212 42.9164L66.9821 54.9545L67.6657 53.8465L59.5742 38.9203L70.8737 43.1258L70.9783 41.8636L60.8363 34.3454L70.3995 32.0358Z" fill="white"/>
</svg>
